<svg 
 xmlns="http://www.w3.org/2000/svg"
 xmlns:xlink="http://www.w3.org/1999/xlink"
 width="30.268cm" height="9.49cm">
<path fill-rule="evenodd"  fill="rgb(0, 0, 0)"
 d="M809.783,102.996 C754.40,146.589 709.283,158.578 685.4,151.816 C704.394,164.609 788.31,142.447 806.460,132.708 C781.92,168.584 758.991,188.864 697.788,202.771 C611.857,210.448 727.380,209.917 710.573,215.510 C690.333,222.244 561.767,275.639 518.800,266.465 C603.606,198.423 595.114,141.32 595.509,113.600 C595.509,113.600 671.762,120.953 774.498,81.753 C807.50,69.332 817.621,63.129 857.600,18.59 C862.4,39.502 828.187,88.603 809.783,102.996 ZM576.400,120.459 C576.400,120.459 579.422,183.292 537.999,203.659 C478.520,232.904 460.13,179.380 454.799,178.59 C449.586,176.738 449.143,205.71 442.0,222.859 C434.856,240.646 427.742,244.829 422.799,222.859 C417.857,200.889 397.199,178.59 397.199,178.59 C397.199,178.59 388.396,209.687 357.0,208.0 C256.382,202.590 288.400,114.59 288.400,114.59 C288.400,114.59 287.953,107.609 262.800,94.859 C237.646,82.108 218.326,-22.752 237.200,24.459 C256.73,71.671 317.10,99.307 314.0,101.259 C310.989,103.211 281.864,127.865 301.199,165.259 C325.565,212.382 375.364,193.826 384.400,184.459 C393.435,175.92 405.622,148.395 410.0,158.859 C414.377,169.323 416.346,188.809 422.0,198.0 C426.108,214.595 432.795,222.885 437.0,206.999 C441.953,188.285 442.23,192.740 448.399,171.659 C454.776,150.578 458.34,153.566 461.200,165.259 C464.365,176.952 470.776,197.335 505.999,197.259 C572.700,199.397 560.634,139.659 563.599,120.459 C566.565,101.259 531.802,96.64 550.800,94.859 C578.323,93.113 597.999,58.0 597.999,58.0 C597.999,58.0 635.60,-7.338 629.999,15.0 C622.330,48.860 576.400,120.459 576.400,120.459 ZM512.399,114.59 C530.73,114.59 544.399,128.386 544.399,146.59 C544.399,163.732 530.73,178.59 512.399,178.59 C494.726,178.59 480.399,163.732 480.399,146.59 C480.399,143.576 480.692,141.162 481.227,138.842 C483.619,146.722 490.938,152.459 499.600,152.459 C510.203,152.459 518.800,143.863 518.800,133.259 C518.800,124.597 513.63,117.278 505.183,114.886 C507.503,114.351 509.916,114.59 512.399,114.59 ZM342.795,177.876 C325.221,179.746 309.458,167.16 307.588,149.442 C305.718,131.868 318.448,116.106 336.22,114.235 C338.491,113.972 340.921,114.7 343.285,114.294 C335.703,117.506 330.773,125.392 331.689,134.5 C332.812,144.549 342.269,152.187 352.814,151.65 C361.427,150.148 368.98,143.669 369.642,135.580 C370.420,137.831 370.966,140.200 371.228,142.669 C373.99,160.243 360.369,176.5 342.795,177.876 ZM576.400,69.259 C569.17,75.942 506.809,100.189 467.600,126.859 C449.983,138.841 444.22,147.686 442.0,152.459 C431.479,177.292 426.492,175.604 416.399,152.459 C406.307,129.313 378.0,120.459 378.0,120.459 C378.0,120.459 361.801,111.853 320.400,88.459 C279.227,65.194 247.759,26.802 243.677,5.619 C247.294,10.50 260.927,24.886 281.999,37.259 C299.842,47.735 320.342,50.812 333.199,50.59 C346.57,49.305 401.688,57.890 409.775,74.784 C420.70,91.625 430.690,102.65 435.600,94.859 C435.600,94.859 439.6,71.272 480.399,56.459 C504.515,47.829 538.366,48.253 563.599,43.659 C601.764,36.711 622.783,-14.87 614.800,5.259 C603.822,31.861 587.99,59.573 576.400,69.259 ZM243.599,5.259 C243.621,5.376 243.654,5.501 243.677,5.619 C242.433,4.94 242.366,3.794 243.599,5.259 ZM262.800,114.59 C263.195,141.624 254.693,199.290 339.599,267.659 C296.581,276.878 167.864,223.226 147.600,216.459 C130.773,210.840 246.433,211.372 160.399,203.659 C99.125,189.685 76.997,169.308 51.599,133.259 C70.50,143.45 153.786,165.314 173.200,152.459 C148.891,159.253 84.334,129.611 48.273,103.404 C29.847,88.942 -4.9,39.605 0.400,18.59 C40.426,63.346 51.9,69.578 83.600,82.59 C186.456,121.448 262.800,114.59 262.800,114.59 Z"/>
</svg>